<svg id="Layer_1" data-name="Layer 1" xmlns="http://www.w3.org/2000/svg" viewBox="0 0 65 39"><defs><style>.cls-1{fill:#1e3158;}.cls-2{fill:#fff;}</style></defs><path class="cls-1" d="M59.05,23h0l0,0a4.59,4.59,0,0,1-.61.35L34.75,37h0a3.51,3.51,0,0,1-1.79.5,3.41,3.41,0,0,1-1.53-.36h0l-.05,0L31.12,37,7.43,23.61a2.71,2.71,0,0,1-.37-.21l-.06,0H7a4.6,4.6,0,0,1,0-7.74H7l.06,0a2.71,2.71,0,0,1,.37-.21L31.13,2l.23-.13.06,0h0A3.41,3.41,0,0,1,33,1.49a3.46,3.46,0,0,1,1.8.51L58.49,15.12l.24.13.09.06h0A4.6,4.6,0,0,1,59.05,23Z"/><path class="cls-2" d="M32.91,5.11a.48.48,0,0,0-.48,0L9.06,18.2a2.71,2.71,0,0,0-.27.16h0a1.32,1.32,0,0,0,.3,2.3h0l11,6.27A1,1,0,0,0,21,27c1.73-.68,8.12-3.35,12.4-7.93,3.9-4.19,6.14-8.93,6.31-10a.39.39,0,0,0-.18-.44Z"/><path class="cls-2" d="M49.16,18.93l-3-1.75-1.63.9,3.07,1.8c.73.43.83.78.32,1.07l0,0A1.85,1.85,0,0,1,46,20.77L41.9,18.35c-.72-.43-.75-.83-.08-1.2L47.52,14a2,2,0,0,1,2.1.08l4.13,2.42c.72.42.83.78.32,1.07l0,0a1.8,1.8,0,0,1-1.86-.21l-3.07-1.8-1.38.77,3,1.75c.71.42.82.77.32,1l0,0A1.77,1.77,0,0,1,49.16,18.93Z"/><path class="cls-1" d="M23.43,18.92c1.19-.05,1.85.17,2,.67s-.38.76-1.58.79l-4.05.1-.29,2.37c-.08.67-.54,1-1.38.88s-1.24-.47-1.17-1.14l.26-2-3.59.09c-1.17,0-1.82-.21-2-.69s.4-.74,1.58-.77l4.16-.11.28-2.31c.08-.68.55-1,1.41-.88s1.25.46,1.13,1.14L20,19Z"/></svg>